<?xml version="1.0" standalone="no"?>
<!DOCTYPE svg PUBLIC "-//W3C//DTD SVG 20010904//EN"
 "http://www.w3.org/TR/2001/REC-SVG-20010904/DTD/svg10.dtd">
<svg version="1.0" xmlns="http://www.w3.org/2000/svg"
 width="1250.000000pt" height="1250.000000pt" viewBox="0 0 1250.000000 1250.000000"
 preserveAspectRatio="xMidYMid meet">

<g transform="translate(0.000000,1250.000000) scale(0.100000,-0.100000)"
fill="#000000" stroke="none">
<path d="M2530 11091 c0 -20 85 -29 138 -15 46 13 19 24 -58 24 -44 0 -80 -4
-80 -9z"/>
<path d="M9605 10693 c-25 -14 -60 -16 -205 -15 -96 1 -238 -2 -315 -7 -268
-18 -410 -32 -433 -42 -13 -5 -78 -14 -145 -20 -67 -6 -134 -17 -149 -25 -14
-8 -44 -14 -67 -14 -22 0 -64 -9 -93 -20 -59 -21 -166 -45 -243 -54 -27 -4
-62 -15 -77 -26 -15 -11 -41 -20 -57 -20 -16 0 -42 -6 -58 -14 -35 -18 -208
-76 -248 -83 -16 -3 -39 -13 -50 -22 -11 -9 -59 -29 -107 -44 -47 -15 -92 -34
-98 -42 -7 -8 -23 -15 -35 -15 -12 0 -34 -9 -48 -20 -14 -11 -34 -20 -46 -20
-11 0 -25 -8 -30 -18 -5 -9 -29 -23 -54 -29 -25 -7 -58 -24 -75 -38 -16 -14
-37 -25 -46 -25 -23 0 -79 -24 -96 -42 -18 -17 -106 -64 -139 -74 -13 -3 -55
-29 -93 -56 -39 -27 -79 -53 -92 -57 -12 -5 -41 -25 -66 -46 -24 -20 -60 -45
-79 -55 -20 -10 -63 -42 -96 -70 -33 -28 -77 -60 -98 -71 -21 -11 -41 -27 -44
-35 -3 -8 -30 -31 -60 -51 -30 -20 -64 -49 -76 -65 -12 -17 -35 -37 -52 -45
-16 -8 -46 -32 -66 -52 -20 -20 -51 -47 -68 -60 -18 -13 -31 -31 -30 -40 4
-47 1 -51 -40 -45 -37 6 -40 4 -57 -27 -9 -18 -64 -81 -121 -139 -58 -58 -111
-117 -119 -132 -7 -15 -23 -29 -34 -33 -11 -4 -38 -32 -59 -63 -21 -31 -56
-75 -78 -97 -22 -22 -57 -66 -78 -97 -21 -32 -41 -58 -45 -58 -4 0 -12 -11
-18 -25 -6 -14 -34 -54 -62 -90 -53 -69 -59 -85 -35 -105 8 -7 15 -19 15 -26
0 -8 9 -14 20 -14 23 0 26 21 8 51 -11 18 -10 23 15 43 15 12 27 30 27 40 0
29 19 56 41 56 14 0 21 9 25 30 4 16 17 36 30 45 15 9 24 25 24 40 0 18 8 28
25 35 14 5 29 18 32 27 4 10 23 34 42 54 76 78 101 109 101 124 0 8 12 17 28
21 15 3 32 7 38 9 6 2 14 20 18 39 4 20 10 36 14 36 14 0 109 95 128 128 10
17 21 32 25 32 4 0 36 26 71 58 36 31 79 65 97 74 29 16 32 21 26 48 -7 32 -3
34 58 30 16 -1 27 4 27 12 0 7 23 33 51 58 28 25 69 64 93 88 23 23 47 42 54
42 6 0 21 13 33 29 12 16 46 41 76 57 32 16 58 37 64 51 6 17 16 23 38 23 23
0 30 5 33 23 2 18 8 21 36 19 23 -2 32 1 32 11 0 8 13 19 28 25 15 5 41 24 57
41 19 20 40 31 57 31 23 0 27 5 30 33 2 25 8 33 27 35 14 2 35 11 48 19 14 9
33 13 48 9 19 -5 30 0 51 24 31 34 42 37 59 13 15 -20 45 -11 45 15 0 28 38
72 63 73 43 1 142 44 141 61 -1 12 14 19 57 27 41 9 64 19 78 37 12 16 35 27
65 33 26 5 55 16 64 24 12 11 22 13 32 7 25 -16 38 -11 49 20 7 23 16 30 36
30 14 0 47 11 73 24 26 13 74 29 107 36 33 6 72 18 87 26 14 8 36 14 48 14 12
0 42 9 68 19 43 17 160 42 222 46 14 1 46 9 70 18 25 8 77 19 115 24 60 7 70
11 73 29 3 19 12 22 115 28 62 5 121 8 132 7 11 0 31 7 44 15 18 13 52 16 160
15 75 0 216 2 313 5 171 5 177 5 190 -15 17 -28 26 -26 30 7 3 24 7 27 48 30
33 3 47 -1 57 -14 22 -30 15 -47 -43 -109 -30 -33 -62 -72 -71 -87 -21 -34
-55 -43 -92 -23 -26 13 -34 13 -70 0 -29 -10 -49 -11 -66 -5 -14 5 -30 7 -37
5 -7 -2 -80 -9 -163 -14 -124 -9 -154 -14 -177 -31 -21 -15 -43 -20 -92 -20
-35 0 -93 -7 -128 -16 -43 -11 -83 -15 -127 -10 -55 5 -80 1 -161 -24 -53 -16
-105 -39 -115 -50 -14 -15 -22 -17 -37 -9 -24 13 -84 4 -118 -18 -13 -9 -67
-29 -119 -45 -52 -15 -102 -35 -111 -43 -9 -8 -31 -15 -49 -15 -32 0 -111 -36
-111 -51 0 -7 -22 -13 -167 -44 -34 -8 -82 -25 -106 -39 -24 -14 -53 -26 -65
-26 -11 0 -33 -13 -49 -28 -15 -16 -43 -32 -62 -35 -18 -4 -49 -20 -68 -37
-18 -16 -39 -30 -45 -30 -22 0 -116 -50 -121 -64 -3 -8 -28 -22 -55 -30 -50
-14 -76 -31 -118 -74 -12 -13 -46 -35 -76 -50 -29 -14 -65 -38 -80 -53 -15
-14 -46 -36 -70 -47 -24 -11 -55 -34 -71 -51 -15 -16 -40 -32 -56 -36 -19 -4
-31 -14 -35 -29 -3 -14 -16 -26 -29 -30 -13 -3 -29 -17 -35 -31 -8 -17 -19
-25 -37 -25 -17 0 -35 -11 -51 -29 -14 -17 -34 -33 -45 -36 -10 -4 -26 -19
-33 -33 -16 -31 -147 -167 -170 -175 -8 -3 -16 -16 -18 -29 -2 -15 -11 -25
-28 -28 -26 -5 -160 -138 -160 -158 0 -6 -20 -27 -44 -47 -25 -20 -46 -46 -48
-58 -4 -30 -41 -34 -67 -8 -28 28 -50 27 -24 -1 41 -47 39 -79 -8 -104 -16 -8
-29 -21 -29 -30 0 -8 -11 -19 -25 -24 -15 -6 -25 -17 -25 -29 0 -33 -11 -51
-31 -51 -10 0 -19 -5 -19 -10 0 -6 -16 -26 -35 -46 -21 -20 -35 -45 -35 -59 0
-16 -12 -33 -35 -51 -35 -26 -63 -90 -47 -106 12 -12 57 27 72 62 7 16 16 30
21 30 5 0 17 17 28 38 17 32 45 70 159 211 15 18 43 51 62 72 19 22 55 64 80
95 61 75 242 268 256 274 14 6 31 22 119 111 33 34 72 67 87 75 16 8 39 32 53
54 15 23 33 40 44 40 10 0 26 10 37 21 10 12 42 37 69 56 28 18 79 58 115 88
36 30 71 55 78 55 7 0 35 20 61 45 26 25 55 45 63 45 8 0 32 14 53 30 21 17
43 30 50 30 6 0 27 11 46 25 85 63 171 113 214 125 27 8 53 22 61 35 9 13 30
26 49 29 19 4 39 15 45 25 6 12 26 21 59 25 27 3 60 15 74 26 14 11 28 20 32
20 4 0 18 9 32 20 14 11 41 20 59 20 18 0 36 5 39 10 3 6 16 10 27 10 12 0 56
17 97 39 42 21 89 41 106 45 16 4 47 16 70 26 22 10 69 24 105 31 36 6 82 20
102 30 21 11 48 19 61 19 13 0 36 9 50 20 20 16 40 20 100 20 44 0 87 6 104
14 76 37 207 66 303 66 42 0 73 5 87 15 14 10 60 16 149 21 71 3 136 8 144 11
30 12 136 12 158 1 18 -9 29 -8 57 5 20 9 45 17 55 17 30 0 26 -55 -6 -98 -54
-70 -160 -174 -191 -187 -23 -10 -33 -21 -33 -36 0 -30 -43 -91 -86 -124 -19
-14 -34 -30 -34 -36 0 -5 -22 -33 -49 -61 -55 -57 -61 -59 -246 -76 -87 -8
-117 -18 -94 -33 8 -5 31 -9 52 -9 38 0 107 -40 107 -62 0 -5 -18 -27 -40 -49
-22 -22 -43 -52 -46 -65 -4 -14 -16 -30 -27 -36 -12 -6 -30 -22 -40 -35 -24
-30 -45 -29 -57 2 -10 26 -24 32 -35 14 -4 -5 -18 -14 -31 -19 -13 -5 -24 -16
-24 -24 0 -15 -29 -26 -70 -26 -14 0 -47 -11 -74 -25 -29 -15 -66 -25 -90 -25
-31 0 -55 -9 -96 -37 -54 -36 -54 -36 -110 -25 -31 7 -62 12 -68 12 -21 0 -13
-16 16 -30 l27 -13 -40 -11 c-23 -6 -56 -22 -74 -35 l-34 -25 -38 22 c-44 25
-89 21 -89 -8 0 -34 -35 -52 -91 -48 -35 2 -53 -1 -56 -9 -3 -8 4 -13 16 -13
12 0 21 -6 21 -15 0 -18 -74 -55 -111 -55 -44 0 -99 -28 -99 -50 0 -12 -10
-25 -25 -32 -21 -10 -29 -8 -48 10 -26 25 -67 29 -67 8 0 -15 21 -26 51 -26
26 0 24 -15 -6 -37 -94 -70 -160 -110 -192 -117 -18 -4 -33 -17 -41 -36 -7
-16 -22 -32 -33 -35 -11 -4 -27 -17 -35 -31 -10 -14 -26 -24 -40 -24 -16 0
-28 -8 -35 -24 -16 -34 -48 -40 -75 -15 -17 16 -27 18 -40 11 -15 -9 -15 -11
5 -31 11 -11 21 -25 21 -29 0 -15 -78 -89 -99 -95 -16 -4 -26 2 -37 19 -19 28
-34 31 -34 8 0 -9 9 -18 20 -21 21 -6 35 -36 25 -53 -3 -5 -21 -10 -39 -10
-36 0 -56 -15 -56 -42 0 -22 -16 -24 -24 -3 -12 32 -26 14 -20 -25 6 -38 5
-40 -19 -40 -17 0 -26 -7 -30 -21 -4 -16 -12 -20 -38 -17 -27 2 -34 -1 -37
-17 -3 -11 -13 -31 -23 -44 -11 -13 -19 -30 -19 -38 0 -7 -13 -16 -28 -19 -21
-4 -32 -15 -41 -40 -7 -19 -10 -38 -7 -43 4 -5 -3 -20 -14 -33 -11 -12 -28
-33 -37 -46 l-18 -23 -27 20 c-14 12 -29 21 -32 21 -13 0 -5 -27 14 -43 24
-20 26 -55 5 -64 -9 -3 -25 -23 -36 -44 -21 -41 -49 -52 -49 -20 0 11 -4 22
-9 26 -16 10 -22 -12 -10 -39 8 -17 9 -30 2 -38 -6 -7 -13 -25 -17 -40 -4 -19
-13 -28 -26 -28 -15 0 -22 -9 -26 -30 -4 -16 -11 -30 -17 -30 -17 0 -77 -50
-77 -64 0 -8 -13 -40 -30 -71 -16 -31 -30 -66 -30 -76 0 -11 -10 -23 -23 -28
-16 -6 -28 -25 -40 -63 -9 -30 -17 -62 -17 -71 0 -11 -8 -17 -21 -17 -19 0
-21 -4 -15 -31 4 -23 1 -38 -14 -56 -11 -14 -20 -30 -20 -36 0 -6 -6 -18 -13
-26 -13 -15 -37 -73 -85 -201 -11 -30 -32 -85 -46 -122 -14 -36 -26 -71 -26
-76 0 -5 -7 -15 -15 -22 -18 -15 -20 -51 -3 -68 9 -9 6 -18 -15 -40 -19 -20
-27 -39 -27 -63 0 -19 -6 -41 -12 -47 -7 -7 -18 -56 -25 -108 -12 -95 -23
-124 -49 -124 -13 0 -34 -30 -34 -49 0 -5 10 -11 22 -13 27 -4 50 -55 30 -67
-15 -9 -128 6 -161 22 -31 15 -51 48 -33 54 18 7 15 23 -10 43 l-23 18 19 78
c11 44 30 105 43 136 15 38 23 78 23 117 0 43 4 60 15 65 17 6 21 72 5 96 -9
13 -12 12 -25 -4 -8 -11 -15 -29 -15 -41 0 -12 -7 -30 -15 -41 -8 -10 -15 -28
-15 -38 0 -11 -4 -33 -10 -50 -5 -17 -19 -78 -30 -136 -12 -58 -26 -123 -32
-145 -5 -22 -12 -58 -15 -80 -3 -22 -9 -44 -13 -49 -5 -5 -55 -10 -111 -11
-81 -1 -105 2 -121 15 -17 14 -19 20 -9 38 6 11 11 43 11 70 0 28 9 78 20 113
10 35 24 89 29 119 18 98 31 153 39 164 5 6 15 34 22 61 7 28 23 83 36 123 13
40 24 79 24 87 0 9 14 41 30 72 17 31 30 62 30 70 0 8 6 27 14 41 7 15 18 45
24 67 14 57 61 166 83 194 11 13 19 31 19 41 0 10 8 28 18 41 10 13 39 69 66
124 77 161 80 166 97 178 9 7 29 37 44 67 15 30 41 70 56 88 16 18 29 41 29
51 0 10 11 26 25 35 14 9 25 23 25 30 0 8 17 36 38 63 21 26 44 63 51 81 8 18
26 39 41 47 15 8 33 28 38 45 6 17 33 54 61 83 27 28 80 86 118 127 73 81 130
142 164 176 12 12 31 32 44 45 46 51 218 204 236 211 10 4 25 18 34 31 9 14
29 30 45 37 16 7 41 27 54 45 14 18 43 43 63 56 21 12 53 35 71 51 18 15 39
28 47 28 7 0 23 14 35 30 12 17 30 30 41 30 11 0 30 10 42 23 12 13 42 34 67
47 25 14 56 34 70 46 14 12 36 25 50 29 14 4 34 15 45 25 11 10 45 28 75 40
30 12 62 30 70 40 8 10 49 32 90 50 41 17 94 42 117 56 23 13 48 24 56 24 8 0
25 8 38 18 13 11 56 31 94 46 39 15 90 35 115 45 45 18 90 33 270 92 168 55
214 68 260 74 68 11 151 33 174 48 12 8 77 19 146 26 69 7 141 16 160 21 19 5
82 12 140 15 58 3 112 8 122 11 16 5 33 33 24 41 -11 11 -388 -37 -483 -61
-32 -8 -103 -22 -158 -30 -94 -15 -145 -29 -387 -105 -54 -17 -103 -31 -110
-31 -8 0 -63 -21 -123 -46 -61 -25 -132 -54 -160 -64 -27 -11 -77 -32 -110
-48 -101 -49 -222 -102 -233 -102 -5 0 -16 -8 -23 -17 -8 -9 -41 -29 -74 -45
-58 -28 -93 -50 -164 -103 -19 -14 -40 -25 -47 -25 -7 0 -52 -26 -99 -57 -48
-32 -101 -67 -118 -78 -18 -11 -40 -30 -50 -42 -10 -13 -25 -23 -33 -23 -8 0
-31 -15 -51 -33 -21 -18 -64 -52 -95 -75 -32 -24 -58 -47 -58 -52 0 -5 -20
-21 -45 -36 -25 -14 -51 -33 -58 -43 -7 -9 -59 -58 -117 -110 -130 -117 -173
-161 -228 -231 -23 -30 -64 -77 -92 -105 -27 -27 -68 -75 -92 -107 -24 -31
-50 -60 -60 -63 -9 -3 -25 -26 -37 -50 -11 -24 -27 -47 -34 -52 -8 -4 -22 -22
-31 -40 -9 -18 -26 -43 -39 -56 -12 -13 -35 -45 -52 -72 -46 -73 -87 -138
-119 -186 -63 -94 -76 -115 -76 -123 0 -4 -17 -38 -38 -74 -21 -37 -46 -88
-56 -114 -9 -25 -27 -57 -40 -70 -13 -12 -26 -36 -30 -51 -4 -16 -32 -82 -62
-147 -30 -65 -63 -147 -74 -182 -10 -35 -39 -121 -64 -193 -24 -71 -56 -173
-70 -225 -13 -52 -29 -108 -35 -125 -18 -54 -63 -316 -59 -340 3 -14 -3 -36
-13 -52 -11 -15 -19 -31 -19 -35 0 -5 91 -7 203 -6 188 1 204 0 237 -19 19
-12 61 -24 93 -28 48 -5 142 -40 227 -85 9 -4 31 -11 50 -14 29 -6 179 -70
252 -107 24 -12 58 -11 58 1 0 12 -160 90 -185 90 -9 0 -32 8 -49 19 -17 10
-49 24 -71 31 -22 7 -45 16 -51 21 -6 5 -28 12 -49 17 -55 11 -83 57 -66 112
7 24 8 47 2 62 -7 18 -4 29 10 47 11 14 19 39 19 62 0 22 11 65 24 97 13 31
27 75 31 97 4 22 11 45 16 50 4 6 12 29 18 50 28 116 64 233 76 252 8 12 15
34 15 48 0 15 11 41 24 58 13 18 27 53 31 80 4 26 13 51 19 55 18 11 56 80 56
101 0 10 7 24 16 32 8 7 24 30 35 50 10 21 30 54 44 75 14 20 25 47 25 59 0
12 7 28 15 35 8 7 17 26 20 44 4 20 16 37 34 47 16 9 31 29 35 45 4 16 15 36
24 45 23 23 146 184 180 236 15 23 47 64 71 92 24 28 54 68 65 88 12 21 33 44
48 51 14 7 31 25 36 41 6 16 31 46 56 67 25 21 46 43 46 50 0 6 25 28 55 48
31 20 61 48 67 61 6 14 31 36 55 50 24 14 76 55 116 91 39 35 90 77 112 92 22
15 74 53 115 86 41 32 94 67 118 77 23 10 42 23 42 28 0 6 19 20 43 32 23 12
75 44 114 71 40 27 100 57 132 67 33 10 82 34 108 54 27 19 77 45 113 57 36
12 72 28 81 36 8 8 22 14 30 14 8 0 41 14 74 30 33 16 66 30 73 30 17 0 164
50 177 60 12 9 176 57 228 66 27 5 37 11 37 25 0 11 7 19 15 19 8 0 15 -9 15
-19 0 -10 -7 -21 -15 -25 -8 -3 -15 -14 -15 -25 0 -10 -28 -50 -62 -87 -35
-37 -84 -90 -109 -118 -229 -253 -308 -334 -335 -340 -37 -10 -29 -26 13 -26
32 0 43 7 92 62 31 35 75 82 98 107 24 24 45 52 48 62 3 10 15 21 25 24 11 3
31 20 46 38 69 84 168 192 264 287 127 128 205 217 215 248 3 12 13 22 20 22
8 0 20 8 27 18 7 11 23 24 36 31 12 6 22 20 22 29 0 10 25 42 55 72 30 30 55
62 55 72 0 10 10 22 23 27 12 5 40 32 62 60 22 28 61 73 86 100 26 27 72 79
102 116 31 37 65 74 77 82 12 8 42 46 66 84 24 39 51 72 59 75 7 3 33 31 56
62 24 32 53 67 66 79 13 12 23 31 23 42 0 33 100 100 168 113 52 9 64 8 137
-20 74 -27 82 -33 111 -80 20 -34 33 -70 37 -106 8 -78 -9 -189 -36 -244 -13
-26 -36 -71 -50 -99 -31 -61 -100 -167 -154 -237 -21 -26 -48 -66 -60 -87 -12
-21 -43 -67 -70 -103 -76 -102 -87 -119 -100 -149 -12 -27 -51 -79 -121 -162
-75 -88 -96 -114 -172 -215 -43 -58 -91 -121 -107 -140 -17 -19 -47 -66 -69
-105 -53 -97 -265 -304 -372 -365 -70 -40 -127 -112 -137 -176 l-6 -41 71 -7
c39 -4 94 -14 123 -23 72 -21 193 -84 249 -130 26 -21 66 -49 89 -63 23 -14
74 -56 114 -95 59 -57 73 -77 78 -110 10 -63 -6 -63 -68 -1 -56 56 -77 66 -57
29 6 -10 42 -50 81 -90 57 -58 71 -78 71 -103 0 -35 19 -40 39 -8 14 22 16 14
-36 185 -14 46 -31 71 -83 124 -36 37 -84 76 -107 88 -23 11 -48 29 -55 38
-15 20 -73 63 -85 63 -4 0 -34 18 -66 39 -76 52 -125 69 -222 78 l-80 8 -3 32
c-2 23 5 40 28 67 18 20 38 36 46 36 8 0 20 11 26 25 7 15 30 34 55 45 23 10
60 35 80 54 21 20 68 63 104 96 65 60 164 187 196 251 9 19 28 48 42 65 90
109 168 211 183 240 10 18 31 40 46 48 15 8 34 26 40 41 7 14 36 56 66 93 29
37 57 77 61 90 3 12 24 42 45 67 21 24 52 68 69 97 16 30 40 63 51 73 11 10
20 24 20 31 0 7 20 37 44 67 25 30 61 83 81 119 19 36 44 73 55 83 40 36 100
236 100 335 0 66 -21 149 -46 183 -34 44 -109 86 -176 97 -88 14 -138 12 -173
-7z m-887 -1000 c3 -19 -1 -23 -22 -23 -28 0 -41 14 -32 36 9 24 50 13 54 -13z"/>
<path d="M9021 10492 c-15 -28 -14 -32 8 -32 27 0 36 19 18 37 -13 14 -16 13
-26 -5z"/>
<path d="M7541 10271 c-23 -15 5 -41 43 -41 40 0 65 15 50 30 -15 15 -76 23
-93 11z"/>
<path d="M6875 9850 c4 -6 11 -8 16 -5 14 9 11 15 -7 15 -8 0 -12 -5 -9 -10z"/>
<path d="M6569 9700 c-1 -16 -2 -35 -3 -42 -2 -19 24 -21 31 -1 4 10 15 24 25
31 30 22 22 42 -17 42 -32 0 -35 -3 -36 -30z"/>
<path d="M6500 9710 c0 -13 18 -22 24 -11 3 5 -1 11 -9 15 -8 3 -15 1 -15 -4z"/>
<path d="M8320 9680 c-8 -5 -31 -10 -50 -10 -19 0 -55 -10 -80 -21 -25 -11
-65 -23 -90 -26 -59 -6 -67 -16 -34 -42 31 -25 82 -21 124 10 14 10 57 23 95
28 85 11 157 29 169 41 23 22 -102 41 -134 20z"/>
<path d="M6410 9651 c0 -16 6 -21 26 -21 33 0 30 33 -4 38 -17 3 -22 -2 -22
-17z"/>
<path d="M8415 9600 c-10 -16 4 -30 30 -30 18 0 22 4 18 20 -6 21 -37 27 -48
10z"/>
<path d="M7950 9577 c-15 -8 -24 -20 -22 -30 2 -9 -1 -17 -5 -17 -82 -1 -184
-24 -268 -61 -99 -45 -128 -76 -57 -63 20 4 50 13 65 21 52 26 149 53 196 54
78 2 106 12 103 35 -2 14 6 24 23 32 29 13 32 27 9 36 -19 7 -14 8 -44 -7z"/>
<path d="M8467 9530 c-3 -11 -2 -20 3 -20 12 0 31 26 23 33 -11 12 -21 7 -26
-13z"/>
<path d="M7740 9410 c0 -5 5 -10 11 -10 5 0 7 5 4 10 -3 6 -8 10 -11 10 -2 0
-4 -4 -4 -10z"/>
<path d="M7508 9403 c-10 -3 -37 -15 -60 -28 -24 -14 -67 -36 -97 -50 -73 -34
-84 -44 -70 -61 18 -21 86 -17 109 6 11 11 20 24 20 30 0 5 18 14 40 20 22 6
40 17 40 25 0 7 12 22 27 33 26 19 22 32 -9 25z"/>
<path d="M7627 9383 c-30 -8 -13 -28 26 -31 27 -2 37 1 37 11 0 8 -7 18 -16
21 -17 6 -19 6 -47 -1z"/>
<path d="M5970 9294 c0 -8 9 -14 20 -14 11 0 20 4 20 9 0 5 -9 11 -20 14 -13
3 -20 0 -20 -9z"/>
<path d="M7161 9216 c-12 -13 -35 -26 -50 -29 -29 -6 -84 -37 -129 -74 -24
-19 -25 -22 -9 -28 10 -4 41 2 73 15 45 19 60 21 80 12 18 -9 24 -9 25 1 1 6
2 21 3 32 1 16 10 21 48 25 64 8 81 25 49 51 -31 26 -63 24 -90 -5z"/>
<path d="M6860 9035 c-18 -19 -45 -37 -59 -40 -15 -3 -58 -36 -97 -74 -38 -38
-78 -70 -87 -72 -21 -5 -86 -62 -215 -189 -54 -52 -109 -103 -124 -112 -15
-10 -29 -26 -33 -37 -3 -11 -21 -29 -40 -40 -39 -22 -47 -51 -15 -51 11 0 28
-9 37 -20 20 -23 63 -27 63 -5 0 8 -9 23 -21 34 -30 27 -21 55 17 57 35 2 74
20 74 34 0 11 37 56 86 104 17 17 33 36 35 43 6 18 118 113 134 113 7 0 23 16
35 35 12 19 42 47 66 61 24 14 49 35 55 45 5 10 14 19 20 19 6 0 26 7 45 16
27 13 37 14 49 4 13 -11 11 -16 -11 -43 -16 -19 -22 -33 -16 -39 17 -17 47 -4
50 22 2 13 11 29 19 35 13 9 12 15 -4 42 -16 29 -16 33 -2 50 9 10 14 24 12
31 -8 22 -38 13 -73 -23z"/>
<path d="M7037 9020 c-16 -10 -24 -20 -19 -24 5 -3 15 1 22 9 7 8 21 15 31 15
10 0 21 5 24 10 10 16 -28 10 -58 -10z"/>
<path d="M6801 8859 c-19 -7 -22 -12 -13 -21 9 -9 16 -8 29 5 21 21 15 27 -16
16z"/>
<path d="M6687 8783 c-14 -13 -7 -33 11 -33 19 0 42 18 42 32 0 10 -44 11 -53
1z"/>
<path d="M6840 8760 c0 -13 -10 -24 -25 -30 -14 -5 -25 -14 -25 -20 0 -18 20
-11 61 22 28 23 36 34 27 40 -22 14 -38 9 -38 -12z"/>
<path d="M7545 8769 c-71 -7 -212 -44 -229 -60 -6 -5 -18 -9 -27 -9 -31 0
-116 -49 -134 -77 -9 -16 -28 -37 -41 -48 -23 -20 -42 -67 -110 -280 -30 -95
-37 -132 -45 -265 -6 -85 -15 -173 -20 -195 -6 -22 -15 -69 -20 -105 -16 -116
-30 -167 -49 -185 -16 -15 -19 -28 -15 -86 3 -52 0 -73 -11 -84 -15 -14 -86
-22 -157 -17 -42 3 -109 -17 -101 -30 4 -7 29 -9 67 -5 42 4 72 1 99 -10 36
-14 40 -14 59 3 20 18 21 18 35 -1 18 -24 18 -30 -1 -45 -12 -10 -21 -10 -44
-1 -23 10 -35 9 -67 -5 -22 -10 -62 -19 -91 -20 -73 -3 -114 -19 -154 -60
l-34 -35 40 16 c22 9 44 21 50 26 15 15 89 10 113 -7 44 -30 16 -64 -53 -64
-20 0 -53 -9 -73 -19 -20 -11 -49 -24 -64 -30 -15 -6 -41 -30 -58 -53 -17 -24
-56 -62 -86 -86 -30 -23 -54 -47 -54 -52 0 -15 26 -12 39 4 6 7 32 21 57 31
29 11 49 26 54 41 6 14 21 29 34 34 13 5 27 18 31 29 6 21 31 35 46 25 17 -10
9 -34 -16 -46 -14 -6 -28 -22 -31 -34 -4 -13 -15 -24 -27 -26 -15 -2 -23 -11
-25 -28 -1 -14 -10 -49 -20 -79 -19 -60 -48 -87 -126 -116 -43 -15 -55 -16
-102 -5 -66 16 -99 4 -161 -56 -35 -35 -43 -50 -43 -78 0 -46 14 -46 37 1 19
40 18 39 146 63 59 11 71 10 83 -2 13 -13 9 -20 -29 -59 -24 -24 -60 -53 -78
-64 -27 -16 -39 -34 -56 -85 -13 -36 -23 -79 -23 -97 0 -17 -4 -35 -10 -38 -5
-3 -10 -18 -10 -33 -1 -31 -56 -75 -108 -87 -37 -8 -44 -16 -32 -35 15 -24 77
-17 108 13 18 18 39 27 60 27 25 0 35 6 46 28 13 26 13 31 -1 45 -20 20 -11
45 19 49 13 2 28 15 36 30 8 17 18 25 27 21 25 -9 17 -35 -21 -74 l-36 -37 36
-51 c20 -28 36 -55 36 -61 0 -17 -17 -11 -31 10 -8 12 -27 22 -44 23 -27 2
-30 -1 -33 -30 -2 -23 -10 -34 -30 -42 -37 -16 -92 -68 -92 -89 0 -9 -9 -36
-20 -59 -13 -30 -25 -43 -39 -43 -11 0 -25 -8 -30 -19 -6 -10 -30 -27 -53 -37
l-43 -18 52 -9 c63 -12 138 8 138 35 0 10 10 25 23 33 12 9 22 25 22 35 0 11
9 28 21 39 14 13 19 26 15 39 -5 15 -1 21 18 26 18 4 26 14 28 34 2 22 8 28
36 30 28 3 32 0 32 -21 0 -20 -6 -26 -35 -31 -19 -4 -35 -8 -35 -9 0 -1 4 -18
10 -36 13 -47 -15 -129 -48 -142 -40 -15 -20 -33 39 -34 85 -1 199 71 199 125
0 9 16 33 35 53 19 20 35 45 35 55 0 11 7 25 15 32 24 20 19 75 -8 93 -13 9
-30 30 -37 47 -9 23 -18 30 -34 28 -11 -2 -22 -12 -24 -23 -4 -22 -30 -55 -44
-55 -17 0 -7 29 22 60 29 31 29 32 15 67 -9 20 -13 44 -9 55 7 24 43 24 41 0
0 -10 7 -35 16 -55 19 -39 50 -50 61 -22 8 23 46 19 46 -5 0 -10 -6 -23 -14
-27 -22 -12 -25 -77 -4 -81 21 -4 65 44 79 87 11 32 10 36 -15 56 -14 11 -26
31 -26 43 0 18 6 22 31 22 22 0 32 -5 36 -20 3 -11 8 -20 12 -20 9 1 52 71
100 165 23 44 48 86 55 95 19 22 76 137 76 153 0 7 13 23 30 35 37 28 45 59
28 103 -19 46 -17 64 7 64 27 0 33 23 34 127 1 48 8 107 16 130 8 24 14 52 13
63 -3 70 17 286 29 315 8 19 17 73 20 120 3 47 14 114 25 150 11 37 23 120 28
194 8 117 48 324 71 366 5 8 27 53 50 98 32 63 52 90 80 107 20 13 39 28 40
32 6 13 113 53 144 53 17 1 48 8 70 16 26 10 94 17 190 21 139 5 196 15 180
31 -8 9 -195 10 -280 1z m-733 -1597 c0 -26 0 -56 -1 -67 -2 -22 -41 -67 -41
-47 0 7 -7 12 -15 12 -21 0 -37 34 -23 48 7 7 18 12 25 12 27 0 11 30 -27 51
-62 35 -55 45 24 41 l56 -4 2 -46z m-127 -126 c62 -18 80 -28 80 -42 0 -11
-11 -21 -30 -26 -22 -5 -39 -22 -63 -61 -39 -64 -41 -101 -7 -133 14 -13 25
-33 25 -46 0 -13 3 -33 6 -45 5 -17 2 -23 -9 -23 -22 0 -47 39 -47 74 0 16
-12 54 -26 83 -14 30 -24 56 -22 57 2 1 14 6 26 12 19 8 24 18 27 56 3 45 2
47 -29 54 -39 8 -66 31 -59 50 7 19 35 17 128 -10z m-117 -85 c3 -8 -1 -12 -9
-9 -7 2 -15 10 -17 17 -3 8 1 12 9 9 7 -2 15 -10 17 -17z m-43 -51 c0 -13 -5
-25 -12 -27 -13 -5 -27 32 -18 47 11 18 30 5 30 -20z m245 -96 c0 -22 -4 -25
-27 -22 -16 2 -29 10 -31 20 -3 15 3 18 51 27 4 0 7 -11 7 -25z m-222 4 c19
-19 14 -44 -12 -56 -16 -7 -26 -21 -28 -39 -3 -26 -6 -28 -45 -25 -34 2 -44
-2 -53 -18 -6 -11 -20 -20 -32 -20 -11 0 -26 -8 -33 -17 -12 -16 -14 -16 -39
0 -37 25 -23 41 30 33 24 -3 44 -2 44 4 0 5 9 12 20 15 11 4 20 15 20 26 0 24
78 109 101 109 8 0 20 -5 27 -12z m48 -114 c9 -46 -11 -69 -26 -30 -12 32 -13
50 -3 59 14 14 22 6 29 -29z m-16 -105 c14 -17 19 -36 17 -64 -2 -33 -6 -41
-25 -43 -15 -2 -33 5 -48 19 -30 28 -30 39 -1 39 25 0 47 17 47 37 0 26 -83 9
-102 -21 -4 -6 -33 -11 -66 -12 -41 -1 -76 -9 -115 -28 -61 -29 -69 -45 -41
-84 16 -23 13 -52 -4 -52 -5 0 -22 18 -37 40 l-27 40 32 37 c83 96 96 103 175
93 54 -7 62 -5 83 15 20 18 30 21 58 15 19 -4 43 -19 54 -31z m-150 -213 c0
-9 -40 -13 -46 -5 -3 5 6 9 20 9 14 0 26 -2 26 -4z m-90 -235 c16 -32 12 -59
-12 -72 -13 -7 -27 -18 -31 -25 -11 -20 -31 -17 -52 6 -18 20 -17 21 28 24 17
1 23 8 25 31 6 59 22 72 42 36z m-40 -165 c0 -19 -57 -57 -75 -50 -25 10 -13
37 25 55 37 18 50 16 50 -5z m-125 -46 c3 -5 -1 -10 -10 -10 -9 0 -13 5 -10
10 3 6 8 10 10 10 2 0 7 -4 10 -10z"/>
<path d="M8092 8761 c-8 -5 14 -11 59 -15 78 -7 97 -2 55 14 -33 12 -96 13
-114 1z"/>
<path d="M8282 8688 c3 -7 13 -15 24 -17 16 -3 17 -1 5 13 -16 19 -34 21 -29
4z"/>
<path d="M5300 8620 c0 -11 5 -20 10 -20 6 0 10 9 10 20 0 11 -4 20 -10 20 -5
0 -10 -9 -10 -20z"/>
<path d="M6620 8600 c0 -5 5 -10 10 -10 6 0 10 5 10 10 0 6 -4 10 -10 10 -5 0
-10 -4 -10 -10z"/>
<path d="M8380 8518 c0 -35 15 -67 26 -56 9 9 -4 76 -16 83 -6 4 -10 -8 -10
-27z"/>
<path d="M6124 8386 c-12 -31 1 -51 34 -54 35 -4 38 4 20 43 -12 27 -45 34
-54 11z"/>
<path d="M6360 8390 c0 -5 5 -10 10 -10 6 0 10 5 10 10 0 6 -4 10 -10 10 -5 0
-10 -4 -10 -10z"/>
<path d="M6314 8356 c-4 -11 -1 -21 7 -27 17 -11 26 18 10 34 -7 7 -12 5 -17
-7z"/>
<path d="M8421 8306 c-1 -42 2 -57 9 -50 8 8 8 27 2 60 l-10 49 -1 -59z"/>
<path d="M4936 8278 c-25 -39 -46 -79 -46 -89 0 -10 -3 -19 -7 -21 -14 -6 -63
-84 -63 -100 0 -8 -7 -21 -15 -28 -8 -6 -17 -21 -21 -33 -4 -11 -44 -89 -91
-171 -46 -83 -93 -176 -104 -206 -11 -30 -33 -82 -49 -115 -38 -81 -58 -133
-66 -174 -3 -19 -21 -67 -40 -106 -19 -40 -34 -79 -34 -88 0 -8 -7 -31 -15
-50 -8 -20 -15 -48 -15 -62 0 -14 -9 -42 -20 -62 -11 -21 -20 -43 -20 -50 0
-6 -15 -61 -34 -121 -19 -60 -37 -142 -41 -183 -4 -41 -15 -103 -25 -139 -24
-82 -35 -148 -59 -331 -10 -81 -22 -153 -27 -162 -5 -9 -41 -32 -79 -52 -118
-61 -130 -68 -135 -75 -3 -4 -18 -14 -35 -23 -16 -8 -40 -27 -52 -41 -13 -14
-27 -26 -33 -26 -8 0 -50 -34 -141 -116 -13 -12 -51 -56 -84 -98 -33 -43 -74
-92 -90 -109 -17 -18 -51 -59 -75 -92 -24 -33 -66 -81 -92 -106 -26 -25 -48
-51 -48 -57 0 -7 -21 -36 -47 -65 -27 -30 -93 -107 -148 -172 -204 -241 -317
-354 -488 -490 -112 -89 -108 -85 -100 -99 5 -7 24 -27 44 -44 35 -31 40 -32
161 -38 l124 -7 53 44 c29 24 73 64 97 89 24 25 49 50 55 55 6 6 23 23 38 39
23 26 75 81 167 178 17 18 43 51 56 73 14 22 35 49 48 60 27 24 50 67 50 93 0
12 9 22 23 26 26 6 77 86 77 122 0 14 5 30 11 37 9 11 29 41 58 87 5 8 22 47
37 85 15 39 45 89 66 112 21 24 38 48 38 55 1 7 13 22 27 33 15 11 41 34 57
50 17 17 56 47 87 67 30 20 61 44 68 52 36 44 61 -4 33 -61 -18 -36 -64 -213
-60 -230 1 -5 -2 -34 -6 -65 -5 -32 -5 -75 0 -95 8 -35 9 -31 15 42 8 104 24
176 53 241 13 29 30 79 36 110 12 56 61 131 135 204 14 14 25 29 25 32 0 4 17
22 38 42 20 19 61 57 90 84 28 28 69 59 90 70 20 10 66 35 102 54 60 33 107
47 202 63 21 3 40 11 44 17 10 17 -115 4 -153 -15 -24 -13 -37 -14 -67 -5 -31
10 -39 9 -59 -9 -28 -25 -124 -83 -137 -83 -6 0 -20 -11 -31 -25 -12 -13 -35
-27 -50 -30 -22 -5 -29 -12 -29 -30 0 -31 -12 -38 -45 -25 -29 11 -29 30 1 45
11 6 33 20 49 33 25 20 27 26 17 42 -7 12 -9 46 -5 105 5 70 10 88 25 96 17 9
18 19 12 121 -7 105 -6 111 14 127 18 13 23 30 28 96 4 44 14 90 22 103 10 15
13 40 10 82 -4 54 -3 59 16 57 18 -2 20 5 24 68 3 62 7 73 33 97 16 15 29 31
29 35 0 36 22 129 34 142 7 9 16 34 19 56 6 51 43 154 62 175 8 9 15 32 15 51
0 26 9 45 35 73 30 33 35 46 35 87 0 30 5 51 14 56 7 4 17 22 23 38 15 46 40
44 53 -4 6 -23 15 -41 20 -41 18 0 11 61 -10 87 l-19 25 24 46 c14 26 25 55
25 65 0 29 19 57 39 57 12 0 23 12 31 33 6 17 16 39 21 47 5 8 20 35 33 60 13
25 34 53 45 62 14 12 21 30 21 54 0 45 15 74 40 74 11 0 20 3 20 7 0 15 -25
73 -31 73 -4 0 -28 -32 -53 -72z m-797 -2387 c16 -28 -7 -41 -38 -22 -12 8
-12 12 -2 25 18 21 28 20 40 -3z m-79 -55 c0 -16 -7 -27 -22 -32 -19 -6 -19
-7 -5 -16 24 -13 22 -48 -2 -48 -10 0 -24 6 -30 14 -7 8 -26 18 -42 21 -41 9
-35 39 9 43 19 2 36 11 42 23 16 28 50 25 50 -5z m-106 -112 c26 -10 18 -24
-13 -24 -18 0 -34 -8 -44 -22 -12 -19 -18 -21 -28 -10 -11 10 -8 17 16 37 32
26 43 29 69 19z m-207 -84 c10 -11 23 -20 30 -20 19 0 23 -16 8 -36 -13 -18
-15 -18 -44 10 -30 29 -42 66 -21 66 6 0 18 -9 27 -20z m108 0 c0 -23 -49 -20
-53 3 -3 15 2 18 25 15 17 -2 28 -9 28 -18z m-151 -71 c25 -20 34 -43 19 -52
-13 -8 -76 50 -69 62 10 16 20 14 50 -10z m-84 -63 c0 -3 -4 -8 -10 -11 -5 -3
-10 -1 -10 4 0 6 5 11 10 11 6 0 10 -2 10 -4z m-15 -77 c8 -37 -4 -52 -36 -47
-33 4 -37 41 -7 62 31 22 35 21 43 -15z m-74 -96 c8 -20 8 -37 0 -59 -6 -17
-11 -49 -11 -72 0 -61 -30 -67 -44 -9 -9 38 -35 46 -57 19 -19 -24 -39 -29
-39 -9 0 19 29 57 43 57 7 0 21 15 31 33 24 40 46 67 58 67 5 0 13 -12 19 -27z
m-178 -205 c2 -13 8 -32 12 -43 7 -16 6 -18 -6 -7 -7 6 -20 12 -29 12 -9 0
-24 6 -34 13 -17 13 -17 14 -1 30 24 24 52 21 58 -5z m104 10 c6 -7 13 -21 16
-31 6 -15 3 -17 -16 -12 -31 10 -41 21 -34 39 8 19 21 20 34 4z m-140 -141
c-5 -17 -27 -20 -27 -4 0 8 -7 20 -15 27 -8 7 -15 22 -15 34 1 19 4 18 31 -12
17 -19 28 -39 26 -45z m123 47 c0 -16 -16 -19 -25 -4 -8 13 4 32 16 25 5 -4 9
-13 9 -21z m-209 -19 c-1 -15 -24 -12 -29 3 -3 9 2 13 12 10 10 -1 17 -7 17
-13z m-65 -100 c-36 -29 -33 -55 14 -100 22 -21 40 -47 40 -56 0 -34 -12 -49
-40 -49 -22 0 -30 -7 -45 -41 -10 -22 -27 -45 -37 -50 -10 -5 -18 -18 -18 -29
0 -22 -37 -37 -53 -21 -8 8 -4 18 15 38 15 16 31 40 37 56 6 15 21 31 35 36
36 14 49 61 26 99 -11 17 -28 36 -39 42 -30 16 -28 56 4 64 13 3 31 19 40 35
18 36 39 44 43 17 3 -13 -6 -28 -22 -41z m214 19 c0 -8 -4 -14 -9 -14 -12 0
-32 26 -25 33 10 9 34 -4 34 -19z m-60 -44 c11 -20 -34 -73 -57 -68 -10 2 -22
15 -27 29 -7 21 -4 30 20 55 30 31 39 29 64 -16z m-250 -107 c0 -13 -30 -33
-49 -33 -7 0 -7 8 -2 23 5 12 12 31 16 42 6 20 7 20 21 1 8 -11 14 -26 14 -33z
m-83 -54 c11 -11 6 -49 -7 -49 -14 0 -42 39 -35 49 8 14 28 14 42 0z m-62 -58
c3 -5 0 -21 -7 -36 -9 -19 -9 -28 0 -37 14 -14 16 -58 3 -58 -20 0 -81 42 -81
56 0 7 11 21 24 29 13 9 26 25 29 35 5 21 22 26 32 11z m-135 -161 c0 -21 -16
-29 -42 -22 -17 4 -25 32 -13 44 12 12 55 -5 55 -22z m208 -8 c3 -17 -2 -22
-18 -22 -25 0 -38 29 -19 41 20 13 34 6 37 -19z m-80 -31 c18 -11 12 -41 -10
-55 -21 -13 -23 -10 -31 32 -5 26 -3 32 11 32 9 0 23 -4 30 -9z m-137 -40 c6
-15 21 -33 35 -40 35 -15 30 -56 -6 -56 -21 0 -25 5 -25 30 0 26 -4 30 -30 33
-38 4 -49 15 -40 41 10 33 54 28 66 -8z m-135 -53 c8 -27 -16 -47 -51 -40 -20
3 -25 10 -25 33 0 26 3 29 34 29 27 0 36 -5 42 -22z"/>
<path d="M6054 8303 c-13 -16 -35 -39 -49 -53 -16 -17 -25 -37 -25 -58 0 -24
-4 -32 -18 -32 -25 0 -102 -81 -102 -107 0 -11 -11 -28 -24 -36 -13 -9 -37
-42 -53 -74 -16 -32 -52 -82 -81 -112 -32 -34 -52 -63 -52 -78 0 -12 -4 -23
-10 -23 -5 0 -18 -15 -27 -34 -10 -18 -33 -61 -50 -94 -40 -74 -41 -92 -9 -92
26 0 63 50 73 101 3 16 12 34 19 40 8 6 14 27 14 47 0 33 1 34 33 30 46 -7 53
-2 49 36 -3 26 3 41 25 67 17 19 46 59 65 90 20 30 49 71 65 90 17 19 40 54
52 78 13 24 31 46 42 48 10 3 19 11 19 18 0 21 40 65 59 65 17 0 41 54 41 94
0 25 -28 19 -56 -11z"/>
<path d="M6220 8246 c0 -7 7 -19 15 -26 13 -11 15 -8 15 14 0 16 -5 26 -15 26
-8 0 -15 -6 -15 -14z"/>
<path d="M5040 8195 c-13 -35 -13 -35 10 -35 15 0 20 7 20 24 0 35 -18 42 -30
11z"/>
<path d="M6112 8186 c1 -10 8 -17 13 -17 15 1 12 24 -3 29 -9 3 -13 -2 -10
-12z"/>
<path d="M5183 8123 c-10 -16 -30 -40 -45 -55 -16 -14 -28 -34 -28 -43 0 -9
-11 -39 -25 -67 -14 -27 -25 -58 -25 -69 0 -16 -5 -18 -25 -13 -21 5 -27 1
-36 -22 -6 -16 -13 -44 -16 -61 -6 -37 -10 -39 -37 -18 -25 19 -36 19 -36 1 0
-7 9 -16 20 -19 15 -4 20 -14 20 -37 0 -42 -49 -142 -67 -136 -9 4 -13 -4 -13
-25 0 -22 -6 -32 -25 -39 -22 -8 -25 -15 -25 -60 0 -56 -16 -95 -55 -134 -14
-14 -25 -31 -25 -38 0 -32 -22 -88 -35 -88 -23 0 -27 -18 -10 -50 15 -29 14
-32 -20 -97 -19 -36 -35 -72 -35 -80 0 -7 -4 -13 -10 -13 -5 0 -14 -9 -20 -20
-8 -15 -7 -25 4 -41 12 -18 11 -30 -10 -107 -32 -111 -59 -203 -67 -222 -3 -8
-8 -42 -11 -75 -4 -33 -14 -84 -23 -114 -13 -43 -14 -57 -4 -73 11 -17 9 -24
-9 -43 -12 -13 -19 -29 -15 -35 4 -7 2 -23 -5 -36 -11 -19 -11 -26 0 -39 7 -8
16 -15 20 -15 13 0 38 89 45 160 4 36 13 90 21 121 8 31 14 80 14 108 0 38 5
56 20 71 12 12 20 33 20 55 0 20 7 49 15 65 8 15 21 68 30 116 10 56 31 123
60 187 25 55 45 113 45 129 0 15 4 36 9 46 22 39 111 248 111 258 0 13 46 103
78 154 12 19 27 51 32 71 6 21 26 63 45 95 19 32 35 62 35 67 0 4 11 23 25 41
13 17 36 58 50 89 15 32 37 64 49 72 23 15 50 81 40 97 -10 16 -34 7 -51 -19z"/>
<path d="M7710 8121 c0 -31 15 -50 22 -29 6 18 -3 58 -13 58 -5 0 -9 -13 -9
-29z"/>
<path d="M7410 8131 c0 -12 90 -94 97 -87 6 6 -78 96 -89 96 -5 0 -8 -4 -8 -9z"/>
<path d="M8446 8123 c-3 -3 -6 -17 -6 -31 0 -21 2 -22 15 -12 8 7 15 18 15 26
0 15 -15 26 -24 17z"/>
<path d="M6003 8034 c-8 -20 13 -42 27 -28 12 12 3 44 -11 44 -5 0 -12 -7 -16
-16z"/>
<path d="M7720 8026 c0 -8 5 -18 10 -21 6 -3 10 1 10 9 0 8 -4 18 -10 21 -5 3
-10 -1 -10 -9z"/>
<path d="M7530 8020 c0 -13 48 -32 61 -24 16 10 -11 34 -37 34 -13 0 -24 -5
-24 -10z"/>
<path d="M8685 8009 c-4 -5 40 -9 109 -9 66 0 116 4 116 9 0 6 -48 10 -110 10
-60 0 -112 -4 -115 -10z"/>
<path d="M9005 8010 c28 -12 45 -12 45 0 0 6 -15 10 -32 9 -28 0 -30 -2 -13
-9z"/>
<path d="M8427 8004 c-4 -4 -7 -18 -7 -31 0 -26 27 -32 37 -7 6 17 -19 49 -30
38z"/>
<path d="M7625 7970 c3 -5 10 -10 16 -10 5 0 9 5 9 10 0 6 -7 10 -16 10 -8 0
-12 -4 -9 -10z"/>
<path d="M7715 7949 c-4 -6 2 -21 14 -33 12 -12 21 -30 21 -39 0 -17 36 -47
57 -47 16 0 8 23 -30 83 -30 46 -49 58 -62 36z"/>
<path d="M7540 7900 c20 -13 43 -13 35 0 -3 6 -16 10 -28 10 -18 0 -19 -2 -7
-10z"/>
<path d="M8205 7884 c-22 -8 -44 -19 -49 -24 -16 -16 37 -11 58 5 11 8 28 15
37 15 10 0 21 5 24 10 9 14 -23 11 -70 -6z"/>
<path d="M8560 7880 c0 -9 31 -30 45 -30 3 0 1 9 -5 20 -11 20 -40 28 -40 10z"/>
<path d="M5942 7829 c2 -6 8 -10 13 -10 5 0 11 4 13 10 2 6 -4 11 -13 11 -9 0
-15 -5 -13 -11z"/>
<path d="M8626 7825 c4 -8 12 -15 20 -15 20 0 17 7 -6 20 -16 9 -18 8 -14 -5z"/>
<path d="M7995 7792 c-25 -13 -27 -17 -11 -20 10 -2 25 3 34 12 23 23 12 27
-23 8z"/>
<path d="M7846 7778 c4 -13 8 -31 8 -40 0 -10 2 -18 5 -18 14 0 71 25 71 32 0
8 -25 23 -65 38 -25 9 -26 8 -19 -12z"/>
<path d="M8677 7773 c3 -10 19 -32 34 -48 16 -17 34 -45 40 -63 6 -18 16 -31
23 -29 21 7 4 51 -42 104 -49 54 -66 66 -55 36z"/>
<path d="M8910 7691 c0 -6 5 -13 10 -16 6 -3 10 1 10 9 0 9 -4 16 -10 16 -5 0
-10 -4 -10 -9z"/>
<path d="M7729 7655 c-19 -14 -47 -33 -62 -42 -15 -10 -45 -33 -65 -50 -20
-18 -40 -33 -44 -33 -5 0 -8 -4 -8 -10 0 -19 30 -10 45 13 8 13 56 50 105 82
50 32 90 60 90 62 0 11 -32 -1 -61 -22z"/>
<path d="M9318 7664 c-5 -4 -8 -16 -8 -28 0 -14 3 -17 11 -9 6 6 9 19 7 28 -1
9 -6 13 -10 9z"/>
<path d="M8790 7608 c0 -2 5 -19 11 -38 6 -19 16 -59 23 -89 14 -65 36 -81 36
-26 0 37 -40 138 -59 150 -6 3 -11 5 -11 3z"/>
<path d="M9267 7572 l-28 -29 29 -59 c16 -32 39 -89 51 -126 22 -65 22 -70 6
-117 -9 -27 -40 -80 -70 -117 -86 -109 -165 -228 -165 -249 0 -15 28 -1 45 24
11 16 44 63 72 104 29 42 59 80 67 84 23 13 72 114 85 173 11 52 10 61 -15
125 -18 45 -29 96 -32 143 -2 39 -7 72 -11 72 -4 0 -19 -13 -34 -28z"/>
<path d="M5488 7489 c-11 -6 -17 -21 -16 -42 0 -18 -8 -50 -19 -72 -11 -22
-23 -53 -27 -69 -4 -16 -18 -38 -31 -48 -14 -11 -30 -38 -37 -61 -6 -23 -20
-53 -30 -66 -10 -13 -18 -28 -18 -33 0 -6 -6 -24 -14 -41 -51 -113 -68 -170
-62 -211 7 -45 30 -86 41 -74 4 4 6 28 5 55 0 26 -1 62 -2 78 -1 49 31 125 53
125 21 0 39 35 39 75 0 13 9 34 20 47 78 92 118 179 129 286 7 64 2 71 -31 51z"/>
<path d="M5596 7491 c-7 -11 3 -41 14 -41 4 0 10 6 13 14 7 17 -18 42 -27 27z"/>
<path d="M9015 7490 c-8 -13 20 -24 36 -15 8 6 7 10 -2 16 -18 11 -26 11 -34
-1z"/>
<path d="M9167 7493 c-4 -3 -7 -13 -7 -21 0 -12 3 -12 15 -2 8 7 15 16 15 21
0 11 -14 12 -23 2z"/>
<path d="M7484 7476 c-10 -8 -16 -17 -13 -20 3 -3 14 1 25 8 10 8 16 17 13 20
-3 3 -14 -1 -25 -8z"/>
<path d="M7410 7427 c-27 -17 -31 -23 -17 -25 20 -4 67 23 67 38 0 15 -11 12
-50 -13z"/>
<path d="M9096 7421 c-4 -7 -5 -15 -2 -18 9 -9 19 4 14 18 -4 11 -6 11 -12 0z"/>
<path d="M7285 7370 c-3 -5 3 -10 14 -10 11 0 23 5 26 10 3 6 -3 10 -14 10
-11 0 -23 -4 -26 -10z"/>
<path d="M8978 7329 c-42 -42 -61 -79 -42 -79 13 0 123 113 118 121 -10 17
-29 6 -76 -42z"/>
<path d="M8780 7220 c-13 -8 -13 -10 2 -10 9 0 20 5 23 10 8 13 -5 13 -25 0z"/>
<path d="M5516 7203 c-8 -8 -8 -47 0 -67 10 -25 34 0 34 34 0 26 -21 46 -34
33z"/>
<path d="M4560 7180 c0 -5 5 -10 10 -10 6 0 10 5 10 10 0 6 -4 10 -10 10 -5 0
-10 -4 -10 -10z"/>
<path d="M8660 7154 c-44 -24 -70 -49 -70 -66 0 -19 25 -5 73 42 28 28 49 50
47 50 -3 0 -25 -12 -50 -26z"/>
<path d="M8827 7123 c-13 -13 -7 -32 8 -27 8 4 15 12 15 20 0 15 -12 19 -23 7z"/>
<path d="M8906 7041 c-3 -5 14 -25 39 -46 53 -43 57 -38 13 15 -34 41 -43 46
-52 31z"/>
<path d="M8450 6994 c-56 -51 -52 -76 4 -29 44 36 64 65 46 65 -6 0 -28 -16
-50 -36z"/>
<path d="M8753 6995 c-3 -9 -3 -18 0 -21 9 -9 27 6 27 22 0 19 -19 18 -27 -1z"/>
<path d="M8727 6933 c-4 -3 -7 -11 -7 -17 0 -6 5 -5 12 2 6 6 9 14 7 17 -3 3
-9 2 -12 -2z"/>
<path d="M5363 6917 c4 -10 7 -23 7 -28 0 -5 5 -9 10 -9 16 0 12 26 -7 41 -15
12 -16 12 -10 -4z"/>
<path d="M5450 6880 c0 -11 5 -20 10 -20 6 0 10 9 10 20 0 11 -4 20 -10 20 -5
0 -10 -9 -10 -20z"/>
<path d="M8279 6880 c-13 -10 -19 -19 -13 -20 7 0 22 9 35 20 13 10 19 19 13
20 -7 0 -22 -9 -35 -20z"/>
<path d="M8405 6869 c-8 -35 -4 -42 18 -33 18 7 31 39 22 54 -12 20 -34 9 -40
-21z"/>
<path d="M9025 6831 c-14 -84 -19 -98 -52 -138 -22 -26 -33 -51 -32 -65 5 -37
-21 -115 -47 -139 -13 -12 -24 -31 -24 -41 0 -13 -18 -26 -57 -44 -55 -24 -60
-24 -91 -10 -43 21 -42 21 -42 -18 0 -36 13 -21 -300 -327 -65 -63 -185 -128
-245 -133 -22 -2 -57 -13 -78 -26 -35 -21 -37 -25 -32 -59 7 -37 17 -68 55
-161 12 -30 37 -109 55 -175 19 -66 55 -185 80 -265 46 -142 47 -147 41 -240
-9 -145 -21 -208 -53 -290 l-30 -75 26 -16 c14 -9 40 -31 56 -49 53 -56 216
-150 285 -164 74 -15 199 -60 287 -102 119 -58 169 -107 208 -205 16 -41 42
-98 57 -128 16 -29 28 -60 28 -68 0 -13 75 -175 99 -213 5 -8 19 -35 31 -60
12 -25 30 -54 40 -65 10 -11 25 -36 35 -55 10 -19 34 -57 54 -85 20 -27 50
-72 65 -99 26 -44 28 -55 22 -115 -7 -80 5 -143 33 -182 27 -37 27 -43 -4 -35
-14 4 -37 0 -53 -7 -33 -17 -74 -8 -117 27 -29 23 -30 27 -28 95 3 67 2 71
-27 91 -57 41 -73 90 -76 230 -1 118 -3 128 -30 176 -57 100 -70 118 -109 158
-22 23 -49 52 -60 66 -33 41 -128 117 -168 133 -20 9 -37 20 -37 26 0 5 -26
27 -57 48 -32 20 -61 42 -65 48 -5 6 -104 10 -280 11 -259 0 -277 2 -343 24
-102 34 -115 41 -159 87 l-41 43 -52 -39 c-28 -22 -59 -41 -69 -43 -13 -2 -20
-13 -22 -35 -3 -27 6 -42 56 -96 56 -60 71 -89 102 -193 14 -48 2 -120 -33
-189 -23 -46 -94 -145 -105 -145 -4 0 -35 -27 -69 -61 -49 -47 -63 -66 -63
-89 0 -42 12 -37 49 20 18 28 45 57 59 64 30 15 99 93 126 141 9 17 28 50 42
74 31 52 42 140 25 204 -13 52 -85 182 -118 214 -15 15 -23 34 -23 56 0 31 4
35 39 45 54 17 56 16 115 -28 29 -22 63 -40 75 -40 12 0 40 -9 61 -20 36 -19
62 -20 323 -23 l284 -2 47 -43 c26 -24 60 -48 77 -54 16 -5 29 -14 29 -19 0
-5 26 -25 58 -46 80 -51 225 -211 265 -293 29 -60 32 -75 38 -205 4 -77 7
-141 8 -142 0 -1 22 -26 47 -54 44 -49 46 -55 40 -96 -7 -56 27 -259 52 -310
31 -60 48 -70 135 -76 l77 -5 24 41 c21 37 24 53 22 132 -3 97 -14 143 -53
218 -23 44 -24 51 -12 96 15 61 9 84 -46 167 -25 36 -45 69 -45 71 0 3 -17 30
-38 61 -48 70 -172 279 -172 290 0 16 -61 156 -73 166 -7 6 -25 50 -40 97 -17
54 -39 100 -60 125 -18 21 -41 51 -50 67 -10 15 -24 27 -31 27 -7 0 -24 8 -37
18 -42 31 -182 89 -233 96 -67 8 -282 102 -327 142 -20 17 -45 35 -56 38 -20
6 -73 81 -73 104 0 8 8 29 19 46 23 37 45 189 44 301 0 80 -17 168 -53 280
-57 178 -91 288 -109 355 -11 41 -29 93 -41 115 -41 80 -15 125 73 125 61 0
137 32 188 78 19 17 85 80 147 139 161 155 173 167 212 207 26 27 43 36 68 36
42 0 79 19 118 62 35 37 80 128 87 173 7 41 48 136 80 182 34 49 34 75 2 89
-23 11 -25 10 -30 -25z m389 -3979 c21 -17 17 -66 -6 -70 -17 -3 -88 93 -88
120 0 29 14 28 45 -4 18 -18 40 -39 49 -46z m43 46 c-3 -8 -6 -5 -6 6 -1 11 2
17 5 13 3 -3 4 -12 1 -19z"/>
<path d="M8190 6832 c-18 -11 -36 -24 -38 -30 -7 -22 24 -12 58 18 38 34 31
39 -20 12z"/>
<path d="M8636 6792 c-19 -37 -4 -68 19 -38 17 22 20 66 5 66 -5 0 -16 -13
-24 -28z"/>
<path d="M8380 6775 c0 -8 5 -15 10 -15 6 0 10 7 10 15 0 8 -4 15 -10 15 -5 0
-10 -7 -10 -15z"/>
<path d="M8890 6699 c0 -17 27 -45 35 -37 3 3 -3 16 -14 29 -16 19 -20 20 -21
8z"/>
<path d="M8352 6603 c3 -29 23 -39 48 -24 12 8 12 13 -4 30 -27 30 -48 27 -44
-6z"/>
<path d="M8562 6600 c-17 -28 -4 -50 15 -25 14 21 17 45 5 45 -4 0 -13 -9 -20
-20z"/>
<path d="M8752 6589 c1 -13 8 -23 13 -21 15 3 12 35 -3 40 -9 3 -13 -3 -10
-19z"/>
<path d="M5302 6573 c3 -30 23 -41 31 -18 9 21 -2 45 -20 45 -10 0 -13 -9 -11
-27z"/>
<path d="M8561 6491 c-8 -15 -7 -20 5 -25 21 -8 34 1 34 25 0 24 -26 25 -39 0z"/>
<path d="M8630 6440 c0 -5 5 -10 11 -10 5 0 7 5 4 10 -3 6 -8 10 -11 10 -2 0
-4 -4 -4 -10z"/>
<path d="M8319 6425 c-4 -5 -10 -35 -14 -65 -4 -30 -14 -64 -21 -75 -16 -22
-19 -75 -5 -75 11 0 21 25 21 55 0 13 7 28 16 33 12 6 14 23 12 73 -2 35 -6
60 -9 54z"/>
<path d="M5301 6324 c0 -11 3 -14 6 -6 3 7 2 16 -1 19 -3 4 -6 -2 -5 -13z"/>
<path d="M8238 6186 c-10 -10 -18 -21 -18 -26 0 -5 -21 -30 -46 -55 -42 -43
-54 -68 -22 -48 33 20 109 113 106 129 -3 17 -4 17 -20 0z"/>
<path d="M8088 6033 c-24 -6 -23 -23 1 -23 10 0 21 7 25 15 6 15 4 16 -26 8z"/>
<path d="M7953 5960 c-24 -10 -43 -21 -43 -25 0 -14 38 -2 65 20 36 29 33 30
-22 5z"/>
<path d="M7772 5633 c-29 -42 -62 -110 -62 -130 0 -9 15 8 33 38 19 31 41 66
50 80 9 13 17 27 17 31 0 17 -20 7 -38 -19z"/>
<path d="M7673 5449 c-16 -16 -17 -49 -3 -49 13 0 23 24 18 45 -2 13 -5 14
-15 4z"/>
<path d="M7628 5301 c-12 -45 -13 -61 -4 -61 22 0 36 24 36 60 0 65 -16 66
-32 1z"/>
<path d="M3916 5122 c-8 -13 19 -162 44 -240 27 -85 34 -200 21 -352 -9 -111
-8 -126 7 -137 9 -7 18 -9 21 -4 3 5 5 107 5 228 -1 202 -3 224 -27 303 -14
47 -33 112 -42 145 -19 67 -21 70 -29 57z"/>
<path d="M4960 4665 c-7 -8 -8 -15 -2 -15 5 0 15 7 22 15 7 8 8 15 2 15 -5 0
-15 -7 -22 -15z"/>
<path d="M4903 4595 c-7 -20 2 -29 21 -22 9 4 13 13 10 22 -8 19 -23 19 -31 0z"/>
<path d="M4982 4533 c3 -19 48 -32 48 -14 0 10 -31 31 -45 31 -4 0 -5 -8 -3
-17z"/>
<path d="M4863 4460 c0 -30 2 -43 4 -27 2 15 2 39 0 55 -2 15 -4 2 -4 -28z"/>
<path d="M8077 4457 l-19 -32 26 24 c26 24 33 41 19 41 -5 0 -16 -15 -26 -33z"/>
<path d="M5118 4377 c-3 -94 -6 -105 -33 -142 -49 -68 -78 -95 -100 -95 -11 0
-38 -9 -60 -20 -25 -13 -61 -20 -101 -21 l-61 -2 -109 -99 c-60 -55 -122 -106
-139 -114 -16 -8 -46 -23 -66 -34 -55 -29 -156 -53 -230 -55 -36 -1 -70 -5
-76 -8 -16 -10 -8 -193 12 -251 9 -27 34 -85 56 -130 31 -65 39 -92 39 -138 0
-56 -2 -60 -52 -114 -29 -31 -61 -64 -71 -73 -10 -9 -42 -40 -71 -68 -35 -35
-62 -53 -78 -53 -17 0 -27 -8 -35 -30 -12 -33 -42 -40 -63 -15 -19 23 -4 45
30 45 16 0 30 4 30 9 0 15 -60 101 -71 101 -15 0 -10 36 7 51 8 7 22 25 30 41
8 15 33 37 57 49 48 24 86 65 87 92 0 10 -16 33 -35 50 -42 37 -45 70 -12 136
27 57 28 178 2 256 -24 71 -30 75 -94 74 -51 -1 -53 -2 -22 -9 41 -10 64 -37
90 -105 33 -88 31 -136 -8 -196 -38 -58 -48 -115 -25 -140 9 -10 23 -19 30
-19 16 0 34 -31 34 -58 0 -13 -9 -21 -27 -25 -16 -3 -60 -37 -99 -74 -86 -83
-138 -181 -129 -241 13 -77 13 -77 67 -100 65 -27 68 -27 128 -1 40 17 55 31
80 75 17 31 43 60 60 69 16 8 36 28 44 43 8 16 33 41 55 56 22 16 43 37 46 47
4 11 18 33 32 50 23 27 25 36 20 84 -3 30 -12 67 -21 82 -15 27 -34 78 -77
208 -27 81 -36 167 -18 182 8 6 46 13 84 15 39 3 90 14 115 26 25 11 75 32
112 47 66 26 130 74 236 175 50 47 56 50 105 50 51 0 155 34 180 59 6 6 16 11
23 11 50 0 124 132 124 221 0 32 4 69 10 83 8 21 6 27 -10 36 -10 5 -21 10
-23 10 -3 0 -6 -46 -9 -103z m-1277 -1388 c-3 -48 -17 -77 -30 -63 -10 10 -9
99 1 111 21 26 33 7 29 -48z"/>
<path d="M5180 4460 c0 -5 19 -15 43 -21 23 -7 67 -34 97 -60 51 -43 202 -148
253 -176 46 -24 136 -63 232 -100 l100 -38 255 0 c244 0 258 1 325 24 39 14
78 30 88 37 23 15 69 3 147 -37 178 -91 352 -165 435 -184 33 -8 110 -20 171
-28 69 -9 128 -22 156 -36 44 -21 83 -20 75 3 -2 6 -22 14 -45 18 -23 4 -63
16 -88 27 -30 14 -68 21 -106 21 -33 0 -67 4 -76 9 -10 5 -50 14 -90 19 -39 6
-87 19 -104 30 -18 11 -64 32 -103 47 -38 16 -120 55 -183 88 -109 57 -116 59
-168 53 -29 -3 -77 -15 -106 -27 -69 -27 -248 -43 -418 -36 -120 4 -148 9
-250 41 -63 21 -128 44 -145 53 -109 59 -142 78 -160 93 -11 9 -41 29 -67 43
-26 15 -70 50 -99 78 -29 28 -63 55 -76 60 -32 12 -93 12 -93 -1z"/>
<path d="M3836 4391 c-37 -38 -45 -103 -21 -155 33 -69 -12 -95 -93 -53 -61
32 -150 44 -195 27 -40 -16 -97 -69 -97 -90 0 -9 -9 -43 -20 -75 -17 -50 -20
-84 -20 -251 l0 -193 -44 -94 c-24 -52 -48 -97 -54 -101 -6 -3 -14 -20 -17
-37 -9 -39 -56 -108 -115 -168 -81 -82 -91 -102 -84 -166 9 -73 28 -67 32 10
3 57 4 59 68 121 36 35 74 83 85 106 21 45 47 90 85 148 12 19 34 70 48 113
24 71 26 92 26 250 1 176 9 231 48 332 17 42 26 52 58 63 44 16 122 5 223 -29
53 -19 181 -26 181 -11 0 4 -15 14 -33 22 -24 11 -36 27 -49 65 -35 99 -15
167 52 169 49 1 52 26 3 26 -30 0 -46 -7 -67 -29z"/>
<path d="M7958 4331 c-23 -23 -38 -41 -33 -41 16 0 91 67 83 75 -3 4 -26 -12
-50 -34z"/>
<path d="M4035 4252 c4 -25 2 -42 -4 -47 -6 -3 -11 -11 -11 -17 0 -7 6 -6 15
2 17 15 20 85 4 96 -8 5 -9 -5 -4 -34z"/>
<path d="M7607 3833 c-4 -3 -7 -16 -7 -28 0 -11 -11 -36 -24 -54 -27 -37 -42
-93 -51 -196 -9 -93 -45 -172 -98 -216 -39 -33 -169 -118 -223 -147 -30 -16
-59 -73 -67 -130 -3 -24 -13 -52 -23 -63 -16 -18 -16 -21 -2 -36 23 -23 49
-10 46 24 -6 86 1 110 45 156 23 25 54 48 68 52 14 3 54 28 90 55 35 27 69 49
76 50 15 0 63 63 93 120 12 25 26 74 31 110 20 163 32 199 95 288 16 21 16 22
-13 22 -16 0 -33 -3 -36 -7z"/>
<path d="M3745 3809 c-22 -11 -55 -28 -74 -39 -41 -23 -87 -88 -73 -102 6 -6
16 1 28 21 10 17 21 31 25 31 3 0 22 11 41 24 19 13 63 35 97 48 44 18 57 27
46 32 -27 10 -48 7 -90 -15z"/>
<path d="M3588 3613 c-10 -11 -18 -29 -18 -41 0 -23 -102 -242 -130 -279 -10
-12 -28 -55 -40 -95 -13 -40 -30 -81 -38 -91 -9 -10 -18 -48 -21 -90 -5 -49
-14 -85 -30 -114 -25 -43 -50 -57 -145 -78 -16 -3 -63 -36 -105 -73 -42 -36
-78 -68 -80 -69 -2 -2 -1 -6 2 -10 11 -10 53 13 99 55 64 57 114 85 143 78 17
-4 35 3 66 27 49 38 73 91 88 198 6 47 21 94 40 129 16 30 41 86 56 125 14 38
32 76 39 85 18 20 66 112 66 126 0 6 7 25 16 42 8 18 14 46 12 63 -3 31 -3 31
-20 12z"/>
<path d="M7556 3284 c-3 -9 -6 -28 -6 -43 0 -39 -43 -160 -74 -209 -14 -23
-39 -48 -56 -57 -16 -8 -46 -27 -66 -40 -21 -14 -60 -33 -87 -43 -61 -21 -82
-51 -91 -125 -6 -44 -15 -66 -38 -93 -27 -31 -36 -35 -71 -32 l-41 3 -22 70
c-35 110 -30 149 29 195 34 27 35 50 3 50 -39 0 -134 -94 -168 -165 -22 -47
-28 -74 -28 -126 0 -78 21 -114 72 -122 18 -3 45 -9 59 -12 37 -10 116 27 128
59 6 13 20 27 31 31 12 4 28 22 36 40 7 19 18 36 23 39 5 4 12 25 16 49 13 78
53 127 103 127 48 0 212 124 212 159 0 9 6 26 14 37 43 60 73 224 42 224 -8 0
-17 -7 -20 -16z m-646 -514 c0 -5 -4 -10 -10 -10 -5 0 -10 5 -10 10 0 6 5 10
10 10 6 0 10 -4 10 -10z m10 -145 c0 -8 -7 -15 -15 -15 -8 0 -15 7 -15 15 0 8
7 15 15 15 8 0 15 -7 15 -15z m70 -35 c0 -5 -5 -10 -11 -10 -5 0 -7 5 -4 10 3
6 8 10 11 10 2 0 4 -4 4 -10z"/>
<path d="M2918 2960 c-57 -7 -74 -14 -113 -47 -61 -50 -85 -98 -86 -171 -1
-63 23 -137 49 -147 48 -20 98 -23 127 -7 69 38 81 64 45 95 -11 9 -20 23 -20
30 0 8 -9 24 -20 37 -17 19 -19 32 -14 72 4 26 3 48 -2 48 -4 0 -21 -12 -36
-27 l-28 -27 0 36 c0 30 4 37 25 42 14 4 34 1 44 -6 17 -10 25 -9 49 9 15 11
43 24 62 28 37 8 60 22 60 36 0 10 -46 10 -142 -1z m-130 -189 c3 -8 -1 -12
-9 -9 -7 2 -15 10 -17 17 -3 8 1 12 9 9 7 -2 15 -10 17 -17z m82 -96 c18 -21
5 -45 -25 -45 -27 0 -41 20 -31 45 7 19 40 19 56 0z"/>
<path d="M8084 2238 c-41 -10 -66 -41 -94 -113 -12 -33 -103 -242 -201 -465
-98 -223 -247 -565 -332 -760 -132 -305 -158 -357 -182 -369 -42 -20 -332 -21
-345 -1 -11 17 -14 1127 -4 1317 l7 120 91 5 c57 3 103 11 123 22 76 39 84
146 14 193 -23 16 -59 18 -338 21 -356 3 -356 3 -392 -72 -11 -25 -107 -265
-212 -533 -106 -268 -195 -491 -199 -496 -3 -4 -55 102 -115 235 -217 487
-376 824 -401 848 l-25 25 -292 -4 c-321 -4 -355 -9 -382 -62 -29 -55 -12
-120 37 -145 25 -13 155 -34 211 -34 16 0 17 -41 17 -725 l0 -725 -55 0 c-138
0 -215 -42 -215 -118 0 -48 28 -86 73 -101 22 -7 140 -10 343 -8 274 2 314 4
337 20 34 22 49 51 49 92 0 75 -39 103 -157 115 -48 5 -89 11 -91 13 -2 2 -3
206 -2 452 l3 448 149 -329 c82 -181 186 -415 231 -520 46 -105 90 -202 99
-216 30 -46 110 -63 153 -33 37 26 59 74 161 350 101 271 280 736 288 744 2 2
4 -201 4 -452 l0 -457 -78 0 c-100 0 -174 -21 -197 -57 -24 -35 -23 -98 1
-125 44 -49 32 -48 837 -47 413 1 765 6 781 10 68 20 102 89 72 148 -21 40
-64 62 -135 67 -31 3 -70 7 -88 10 l-32 5 43 102 c24 56 55 128 70 160 l26 57
272 0 273 0 59 -147 c32 -82 61 -154 63 -160 4 -10 -17 -13 -83 -13 -49 0
-109 -5 -134 -11 -113 -26 -144 -138 -57 -203 28 -21 38 -21 530 -22 548 -1
553 -1 581 55 31 59 9 122 -52 148 -20 9 -79 18 -129 21 -51 2 -97 10 -102 16
-8 10 -449 976 -659 1441 -52 116 -105 222 -119 237 -29 30 -56 37 -99 26z
m-2830 -740 c3 -13 4 -194 3 -403 l-2 -380 -47 -3 -48 -3 0 405 0 406 45 0
c38 0 45 -3 49 -22z m514 -65 c22 -49 51 -115 65 -148 14 -33 53 -121 87 -195
34 -74 71 -155 82 -180 l20 -45 54 135 c30 74 75 189 100 255 25 66 59 153 76
193 l30 72 45 0 c53 0 59 27 -52 -255 -45 -115 -112 -286 -147 -380 l-65 -170
-144 0 -144 0 -93 210 c-51 116 -131 292 -177 392 -47 100 -85 187 -85 193 0
6 55 10 154 10 l153 0 41 -87z m1063 -238 c2 -179 2 -361 1 -405 l-4 -80 -149
0 -149 0 0 405 0 405 149 0 149 0 3 -325z m1089 314 c0 -6 -34 -87 -75 -179
-69 -157 -135 -314 -135 -325 0 -3 137 -5 305 -5 168 0 305 2 305 4 0 7 -59
145 -139 323 -44 100 -81 185 -81 188 0 3 71 4 157 3 l157 -3 114 -250 c185
-405 242 -534 242 -545 0 -7 -55 -10 -167 -8 l-166 3 -47 110 -48 110 -328 2
-329 3 -54 -115 -54 -115 -49 0 c-26 0 -48 4 -48 9 0 12 70 178 152 361 36 80
91 206 123 280 31 74 62 141 67 148 13 15 98 16 98 1z m97 -417 c-94 -1 -171
-1 -173 1 -2 2 32 87 77 188 44 101 83 190 86 197 3 7 44 -76 92 -185 l87
-198 -169 -3z"/>
<path d="M3325 2203 c-30 -7 -73 -52 -80 -83 -3 -16 0 -43 8 -62 21 -49 66
-68 166 -68 l81 0 0 -735 0 -735 -62 0 c-76 0 -136 -15 -164 -42 -48 -44 -33
-132 28 -165 30 -17 66 -18 459 -18 464 0 466 0 495 57 28 55 9 123 -43 148
-15 7 -72 15 -125 18 l-98 4 0 317 0 316 163 1 c141 1 175 5 262 28 120 31
199 68 286 134 103 79 157 167 185 304 17 81 17 90 1 164 -9 44 -28 102 -42
129 -50 103 -171 197 -307 240 -158 50 -225 55 -728 54 -256 -1 -474 -3 -485
-6z m927 -242 c52 -22 101 -74 119 -128 17 -49 17 -207 0 -257 -36 -104 -186
-186 -342 -186 l-39 0 0 294 0 295 23 5 c47 10 195 -4 239 -23z m-352 -551 l0
-110 80 0 c101 0 215 23 297 60 63 29 146 102 158 140 6 19 16 20 166 20 l160
0 -18 -30 c-27 -46 -91 -105 -158 -145 -126 -75 -326 -113 -530 -101 -60 4
-120 10 -132 13 l-23 5 0 -276 0 -276 -155 0 -155 0 0 405 0 405 155 0 155 0
0 -110z"/>
</g>
</svg>
